<svg width="1005" height="1024" viewBox="0 0 1005 1024" fill="none" xmlns="http://www.w3.org/2000/svg">
<path d="M681 570H305C295.611 570 288 574.477 288 580C288 585.523 295.611 590 305 590H681C690.389 590 698 585.523 698 580C698 574.477 690.389 570 681 570Z" fill="#655B52"/>
<path d="M632.5 614H354.5C346.492 614 340 618.477 340 624C340 629.523 346.492 634 354.5 634H632.5C640.508 634 647 629.523 647 624C647 618.477 640.508 614 632.5 614Z" fill="#A3927C"/>
<path d="M589.5 658H397.5C391.149 658 386 662.477 386 668C386 673.523 391.149 678 397.5 678H589.5C595.851 678 601 673.523 601 668C601 662.477 595.851 658 589.5 658Z" fill="#A3927C" fill-opacity="0.5"/>
</svg>
