<svg width="127" height="175" viewBox="0 0 127 175" fill="none" xmlns="http://www.w3.org/2000/svg">
<path d="M0 0C3.444 0.163998 7.954 0.327991 13.53 0.491989C19.106 0.655987 24.6 0.737991 30.012 0.737991C37.72 0.737991 45.1 0.655987 52.152 0.491989C59.204 0.327991 64.206 0.245995 67.158 0.245995C87.002 0.245995 101.844 4.75599 111.684 13.776C121.524 22.796 126.444 34.44 126.444 48.708C126.444 54.612 125.46 60.844 123.492 67.404C121.524 73.8 118.08 79.786 113.16 85.362C108.404 90.774 101.844 95.202 93.48 98.646C85.116 102.09 74.538 103.812 61.746 103.812H38.13V98.892H59.286C70.93 98.892 79.786 96.678 85.854 92.25C92.086 87.822 96.268 82 98.4 74.784C100.696 67.568 101.844 59.778 101.844 51.414C101.844 35.834 98.728 24.19 92.496 16.482C86.428 8.774 75.932 4.91999 61.008 4.91999C53.464 4.91999 48.544 6.31399 46.248 9.102C43.952 11.89 42.804 17.548 42.804 26.076V148.092C42.804 153.996 43.378 158.424 44.526 161.376C45.838 164.328 48.298 166.296 51.906 167.28C55.514 168.264 60.762 168.92 67.65 169.248V174.168C63.386 173.84 57.974 173.676 51.414 173.676C44.854 173.512 38.212 173.43 31.488 173.43C25.092 173.43 19.106 173.512 13.53 173.676C7.954 173.676 3.444 173.84 0 174.168V169.248C5.576 168.92 9.758 168.264 12.546 167.28C15.498 166.296 17.466 164.328 18.45 161.376C19.434 158.424 19.926 153.996 19.926 148.092V26.076C19.926 20.008 19.434 15.58 18.45 12.792C17.466 9.83999 15.498 7.872 12.546 6.888C9.758 5.74 5.576 5.08399 0 4.91999V0Z" fill="#3F3B37"/>
</svg>
