<?xml version="1.0" encoding="UTF-8"?>
<svg width="1024" height="1024" viewBox="0 0 1024 1024" fill="none" xmlns="http://www.w3.org/2000/svg">
  <defs>
    <clipPath id="cover-clip">
      <rect x="76" y="56" width="826" height="864" rx="76"/>
    </clipPath>
  </defs>
  <g clip-path="url(#cover-clip)" stroke="#DCE6E0" stroke-linecap="round" opacity="0.065">
    <path d="M248 74V902M270 74V902M294 74V902M317 74V902M343 74V902M365 74V902M389 74V902M414 74V902M436 74V902M462 74V902M485 74V902M509 74V902M534 74V902M557 74V902M582 74V902M606 74V902M629 74V902M655 74V902M678 74V902M702 74V902M727 74V902M749 74V902M775 74V902M798 74V902M822 74V902M847 74V902M870 74V902M894 74V902" stroke-width="1.5"/>
    <path d="M263 151L278 145M354 212L369 206M453 118L469 112M553 184L570 177M663 128L678 122M767 203L784 196M845 156L860 150M292 349L307 343M399 409L415 403M510 331L526 324M619 389L635 383M727 323L744 316M823 422L839 416M267 548L283 541M374 617L390 611M475 526L491 520M583 601L599 594M693 541L709 535M803 629L819 622M308 763L324 756M417 833L433 827M531 742L547 735M641 815L657 809M744 733L760 727M836 847L851 840" stroke-width="2"/>
  </g>
  <path d="M862 785C849 820 829 845 799 861" stroke="#E5ECE8" stroke-width="4" stroke-linecap="round" opacity="0.08"/>
</svg>
